<?xml version="1.0" encoding="utf-8"?>
<!-- Generator: Adobe Illustrator 16.0.0, SVG Export Plug-In . SVG Version: 6.00 Build 0)  -->
<!DOCTYPE svg PUBLIC "-//W3C//DTD SVG 1.1//EN" "http://www.w3.org/Graphics/SVG/1.1/DTD/svg11.dtd">
<svg version="1.1" id="Layer_1" xmlns="http://www.w3.org/2000/svg" xmlns:xlink="http://www.w3.org/1999/xlink" x="0px" y="0px"
	 width="486px" height="621px" viewBox="62.5 85.5 486 621" enable-background="new 62.5 85.5 486 621" xml:space="preserve">
<path fill="#EE3840" d="M543.687,327.686c0,190.324-214.859,366.589-214.859,366.589c-12.554,10.301-33.1,10.301-45.655,0
	c0,0-214.859-176.266-214.859-366.589C68.316,196.415,174.731,90,306.001,90C437.271,90,543.687,196.415,543.687,327.686z"/>
<path fill="#FFE1D6" d="M306.001,447.268c-65.938,0-119.581-53.645-119.581-119.581s53.645-119.583,119.581-119.583
	c65.936,0,119.58,53.645,119.58,119.58C425.581,393.621,371.939,447.268,306.001,447.268z"/>
</svg>
