<?xml version="1.0" encoding="utf-8"?>
<!-- Generator: Adobe Illustrator 16.0.0, SVG Export Plug-In . SVG Version: 6.00 Build 0)  -->
<!DOCTYPE svg PUBLIC "-//W3C//DTD SVG 1.1//EN" "http://www.w3.org/Graphics/SVG/1.1/DTD/svg11.dtd">
<svg version="1.1" id="Layer_1" xmlns="http://www.w3.org/2000/svg" xmlns:xlink="http://www.w3.org/1999/xlink" x="0px" y="0px"
	 width="527.587px" height="400.967px" viewBox="84.413 153.31 527.587 400.967"
	 enable-background="new 84.413 153.31 527.587 400.967" xml:space="preserve">
<g>
	<path fill="#B9EBFF" d="M580.345,153.311h-79.42c23.344,32.775,37.213,72.765,37.213,116.068c0,13.17-1.284,26.038-3.707,38.498
		L612,385.448V184.965C612,167.482,597.827,153.311,580.345,153.311z"/>
	<path fill="#B9EBFF" d="M84.414,469.862l87.569-87.569c-21.96-32.158-34.81-71.034-34.81-112.914
		c0-43.304,13.869-83.294,37.214-116.068h-58.318c-17.482,0-31.655,14.173-31.655,31.655v52.759v21.103L84.414,469.862
		L84.414,469.862z"/>
</g>
<g>
	<path fill="#D2F5F0" d="M464.276,269.379c0,3.747-0.174,7.454-0.493,11.118c12.411-11.612,31.871-11.396,43.979,0.713
		l26.666,26.667c2.424-12.46,3.709-25.329,3.709-38.498c0-43.304-13.869-83.294-37.214-116.068H388.189
		C432.954,172.829,464.276,217.424,464.276,269.379z"/>
	<path fill="#D2F5F0" d="M300.437,390.437l26.667,26.667l21.587-21.587c-3.637,0.314-7.316,0.484-11.036,0.484
		C324.702,396,312.206,394.05,300.437,390.437z"/>
	<path fill="#D2F5F0" d="M137.173,269.379c0,41.88,12.85,80.756,34.81,112.914l37.773-37.773c5.529-5.528,12.594-8.566,19.822-9.15
		c-11.761-19.217-18.542-41.811-18.542-65.992c0-51.955,31.322-96.55,76.086-116.068H174.388
		C151.041,186.085,137.173,226.076,137.173,269.379z"/>
</g>
<path fill="#FCFFDC" d="M211.035,269.379c0,24.181,6.781,46.775,18.541,65.993c8.934-0.722,18.113,2.316,24.947,9.15l45.916,45.916
	c11.768,3.612,24.264,5.562,37.217,5.562c3.72,0,7.398-0.17,11.036-0.484L462.996,281.21c0.253-0.253,0.528-0.47,0.789-0.713
	c0.318-3.664,0.492-7.371,0.492-11.118c0-51.956-31.322-96.55-76.086-116.068H287.12
	C242.355,172.829,211.035,217.424,211.035,269.379z M337.655,195.518c40.793,0,73.862,33.069,73.862,73.862
	s-33.069,73.862-73.862,73.862c-40.792,0-73.862-33.069-73.862-73.862S296.862,195.518,337.655,195.518z"/>
<path fill="#B4EBBE" d="M507.764,281.21c-12.108-12.108-31.568-12.325-43.978-0.713c-0.26,0.243-0.535,0.459-0.789,0.713
	L348.693,395.516l-21.589,21.587l137.173,137.173h42.206h21.104h52.759c17.482,0,31.655-14.173,31.655-31.655V385.448l-77.569-77.57
	L507.764,281.21z"/>
<path fill="#A0D778" d="M254.522,344.521c-6.833-6.834-16.013-9.871-24.947-9.15c-7.227,0.583-14.292,3.621-19.822,9.15
	l-37.773,37.773l-87.567,87.569v52.759c0,17.482,14.173,31.655,31.655,31.655h200.482h147.725L327.104,417.104l-26.667-26.667
	L254.522,344.521z"/>
<path fill="#FFF5A5" d="M263.793,269.379c0,40.792,33.07,73.862,73.862,73.862c40.793,0,73.862-33.069,73.862-73.862
	s-33.069-73.862-73.862-73.862C296.863,195.518,263.793,228.587,263.793,269.379z M379.862,269.379
	c0,23.31-18.897,42.207-42.207,42.207s-42.206-18.897-42.206-42.207c0-23.31,18.896-42.207,42.206-42.207
	S379.862,246.069,379.862,269.379z"/>
<circle fill="#FFDC69" cx="337.655" cy="269.379" r="42.207"/>
</svg>
